<?xml version="1.0" encoding="UTF-8"?> <svg xmlns="http://www.w3.org/2000/svg" width="300" height="221" viewBox="0 0 300 221" fill="none"> <path d="M298 157C297.82 156.304 295.849 156.291 294.5 156.5C293.151 156.709 292.855 157.216 293 158C293.09 158.487 294.471 158.778 296 158.5C297.529 158.152 298.27 157.975 298 157Z" fill="black" stroke="black" stroke-width="2" stroke-miterlimit="10" stroke-linecap="round" stroke-linejoin="round"></path> <path d="M14.6702 99.2803C14.6702 99.2803 15.5897 88.2461 13.7507 80.89C11.9117 73.5339 10.0726 68.9363 10.9921 60.6607C11.9117 52.3851 13.0151 49.7185 13.9346 46.0404C14.8541 42.3623 16.5092 36.5694 16.6931 33.3511C16.877 30.0408 14.4863 21.6733 17.8885 21.3054C21.1068 21.0296 22.2102 29.673 22.3022 32.8913C22.4861 39.3279 21.1068 45.9484 22.9458 45.9484C24.7849 45.9484 26.6239 35.8338 26.6239 31.2362C26.6239 26.6386 26.2561 17.5354 26.2561 15.2366C26.2561 12.9379 26.5319 9.71956 29.1066 9.4437C31.6812 9.0759 32.141 12.3862 32.4168 14.8688C32.6927 17.3515 34.4398 27.4662 34.3478 31.1443C34.1639 34.8223 34.2559 44.4772 33.1524 47.6036" stroke="black" stroke-width="1.5" stroke-miterlimit="10" stroke-linecap="round" stroke-linejoin="round"></path> <path d="M30.9454 9.99533C30.9454 9.99533 30.7615 6.31727 33.8878 6.04142C36.0027 5.76556 36.7383 7.7885 37.1981 9.99533C37.6579 12.2022 39.1291 25.719 39.6808 29.581C40.2325 33.351 42.991 47.0518 41.6118 50.5459" stroke="black" stroke-width="1.5" stroke-miterlimit="10" stroke-linecap="round" stroke-linejoin="round"></path> <path d="M39.0376 24.7993C39.0376 24.7993 41.98 25.0752 43.5432 29.121C44.6466 31.7876 46.3017 38.0403 48.7844 45.9482C49.4281 47.8791 49.4281 49.9021 48.6925 51.7411C47.8649 54.0399 46.6695 57.534 44.0949 61.9477C40.049 68.8441 35.7273 73.3497 34.8998 81.1656C34.1641 87.6941 36.7388 99.372 36.7388 99.372" stroke="black" stroke-width="1.5" stroke-miterlimit="10" stroke-linecap="round" stroke-linejoin="round"></path> <path d="M48.1404 53.2124C48.1404 53.2124 49.7035 58.1778 48.1404 61.3961C46.5772 64.7063 39.0372 69.9476 36.0947 75.8325" stroke="black" stroke-width="1.5" stroke-miterlimit="10" stroke-linecap="round" stroke-linejoin="round"></path> <path d="M19.176 21.7654C18.6243 21.2137 17.6128 21.6734 17.6128 22.4091C17.6128 23.0527 17.7967 23.7883 17.9806 24.7078C18.2565 26.0871 20.923 26.1791 20.3713 23.8803C20.0955 22.7769 19.6357 22.1332 19.176 21.7654Z" fill="black" stroke="black" stroke-width="1.5" stroke-miterlimit="10" stroke-linecap="round" stroke-linejoin="round"></path> <path d="M29.6581 9.81152C28.4627 9.81152 28.4627 11.7425 28.6466 13.3057C28.8305 14.8689 29.3823 15.3286 30.3018 15.2367C31.2213 15.1447 31.9569 14.2252 31.681 12.5701C31.4052 10.731 30.8535 9.81152 29.6581 9.81152Z" fill="black" stroke="black" stroke-width="1.5" stroke-miterlimit="10" stroke-linecap="round" stroke-linejoin="round"></path> <path d="M34.2559 5.94947C34.2559 5.94947 32.8766 5.67361 33.5203 9.16777C34.1639 12.6619 37.3822 12.0183 36.9225 9.35167C36.5547 6.68508 34.2559 5.94947 34.2559 5.94947Z" fill="black" stroke="black" stroke-width="1.5" stroke-miterlimit="10" stroke-linecap="round" stroke-linejoin="round"></path> <path d="M92.9324 99.2802C95.507 96.0619 98.1736 89.4414 99.9207 84.7519C101.024 81.7175 100.748 78.3152 99.1851 75.4648C96.9783 71.6947 93.9439 66.0857 92.5646 61.9479C90.3578 55.1435 91.5531 54.3159 89.99 47.2356C88.7946 41.8105 85.9441 35.6498 84.7487 33.0751C84.3809 32.2476 84.6568 31.328 85.4843 30.8683C86.9555 30.1327 89.3463 29.9488 91.9209 33.8107C96.0587 39.9715 97.438 52.5688 103.047 50.4539C107.645 48.7069 108.196 44.4771 104.702 37.8566C103.599 35.8337 102.219 33.9027 101.484 32.8912C100.564 31.6958 100.013 31.5119 99.277 31.6958C97.0702 32.3395 91.9209 33.8107 89.898 31.5119" stroke="black" stroke-width="1.5" stroke-miterlimit="10" stroke-linecap="round" stroke-linejoin="round"></path> <path d="M89.8983 31.6039C89.8983 31.6039 88.9788 30.9602 88.519 29.489C88.3351 28.9373 88.7029 28.2936 89.2546 28.1097L100.841 25.4431C102.22 25.0753 104.059 25.4431 104.978 26.5465C106.358 28.2936 108.197 31.1441 110.128 33.4429C113.254 37.2129 115.277 37.9485 115.277 37.9485" stroke="black" stroke-width="1.5" stroke-miterlimit="10" stroke-linecap="round" stroke-linejoin="round"></path> <path d="M110.22 33.4431L108.565 24.4319C108.381 23.6043 108.013 22.8687 107.461 22.2251C105.438 20.1102 100.565 14.685 98.7259 11.3748C97.3467 8.80014 98.0823 6.96111 98.8179 5.8577C99.2776 5.21404 100.197 5.21404 100.749 5.76574L112.886 19.0068C113.438 19.6504 113.898 20.386 114.174 21.2136C114.817 23.4204 116.289 28.2019 117.3 30.9605C118.587 34.6385 120.702 37.3971 120.702 37.3971" stroke="black" stroke-width="1.5" stroke-miterlimit="10" stroke-linecap="round" stroke-linejoin="round"></path> <path d="M116.656 29.3968C116.656 29.3968 116.84 24.7992 116.932 22.8682C117.024 21.397 116.472 20.4775 115.92 19.6499C113.162 15.6041 107.921 11.7421 110.127 7.88015C110.495 7.23649 111.507 7.14454 112.058 7.69625C114.357 10.1789 120.334 16.6155 121.897 19.0063C123.828 22.0407 122.265 29.3048 124.656 35.6495" stroke="black" stroke-width="1.5" stroke-miterlimit="10" stroke-linecap="round" stroke-linejoin="round"></path> <path d="M120.702 17.2593C120.702 17.2593 122.633 17.719 124.012 19.0064C125.115 20.0178 126.679 29.9486 127.23 33.8105C127.414 34.822 127.414 35.8335 127.322 36.8449C127.046 40.7069 126.311 50.8216 123.92 58.8214C121.253 67.8326 119.414 69.9475 120.426 78.499C120.702 80.6139 120.426 82.7287 119.598 84.6597C118.127 88.2458 115.736 94.4066 113.438 100.751" stroke="black" stroke-width="1.5" stroke-miterlimit="10" stroke-linecap="round" stroke-linejoin="round"></path> <path d="M85.5762 34.6382C86.4957 36.7531 86.6796 36.845 87.5991 36.6611C88.5187 36.4772 88.5187 34.5463 87.5991 33.075C86.5877 31.5119 85.6682 30.5004 84.8406 31.6958C84.3808 32.3394 85.5762 34.6382 85.5762 34.6382Z" fill="black" stroke="black" stroke-width="1.5" stroke-miterlimit="10" stroke-linecap="round" stroke-linejoin="round"></path> <path d="M88.8864 28.3858C88.8864 28.3858 87.9669 29.949 90.7254 29.3053C93.392 28.7536 95.0471 26.7307 93.2081 27.1905C91.6449 27.5583 88.8864 28.3858 88.8864 28.3858Z" fill="black" stroke="black" stroke-width="1.5" stroke-miterlimit="10" stroke-linecap="round" stroke-linejoin="round"></path> <path d="M100.473 5.58149C99.6453 4.75393 99.0017 6.04125 99.8292 7.51247C101.209 9.99516 104.703 9.99516 102.956 8.06418C101.944 7.14466 102.036 7.14466 100.473 5.58149Z" fill="black" stroke="black" stroke-width="1.5" stroke-miterlimit="10" stroke-linecap="round" stroke-linejoin="round"></path> <path d="M111.783 7.42105C110.955 6.68544 110.403 7.88081 111.139 9.35203C112.426 11.7428 115.828 11.7428 114.173 9.90374C113.162 8.89228 113.346 8.89228 111.783 7.42105Z" fill="black" stroke="black" stroke-width="1.5" stroke-miterlimit="10" stroke-linecap="round" stroke-linejoin="round"></path> <path d="M168.941 99.4065C168.941 99.4065 165.907 82.5794 164.16 77.7059C162.413 72.8325 159.654 70.4418 158.459 61.6144C157.447 54.1664 158.827 49.0171 160.022 43.2241C160.941 38.6266 162.229 30.167 162.688 26.9487C162.78 26.1212 163.608 25.6614 164.344 25.7533C165.999 26.1212 168.573 27.6843 168.022 33.2934C167.378 40.1897 166.55 45.431 166.55 45.431C166.55 45.431 169.217 34.2129 172.527 25.1097C175.838 16.0065 178.228 10.7653 179.516 7.54695C180.803 4.32865 181.814 2.48962 183.561 2.76547C185.125 3.04133 186.32 4.0528 184.665 9.84574C182.55 17.2938 177.033 37.3392 177.033 37.3392" stroke="black" stroke-width="1.5" stroke-miterlimit="10" stroke-linecap="round" stroke-linejoin="round"></path> <path d="M184.849 8.65058C184.849 8.65058 185.952 1.01861 188.803 1.38641C191.377 1.66227 190.825 5.24838 190.09 8.55863C189.354 11.8689 185.308 38.3509 185.308 38.3509" stroke="black" stroke-width="1.5" stroke-miterlimit="10" stroke-linecap="round" stroke-linejoin="round"></path> <path d="M190.182 8.65054C190.182 8.65054 190.458 5.06443 193.033 5.43224C195.515 5.80004 194.78 10.4896 194.412 14.4435C194.044 18.3974 193.308 31.5465 192.849 34.5809C192.389 37.6153 191.837 41.4772 193.768 41.845C195.423 42.2128 197.814 35.5004 198.366 33.3855C198.917 31.2706 197.17 21.4318 200.389 21.1559C203.147 20.972 203.607 30.1672 203.607 33.1096C203.607 33.7533 203.607 34.305 203.423 34.8567C202.688 38.3509 199.745 51.5919 198.09 56.9251C196.159 63.0858 194.044 72.281 188.711 78.7176C183.378 85.1542 191.929 100.326 191.929 100.326" stroke="black" stroke-width="1.5" stroke-miterlimit="10" stroke-linecap="round" stroke-linejoin="round"></path> <path d="M162.32 29.0634C162.045 31.3622 162.137 31.5461 163.056 31.8219C163.976 32.0978 164.895 30.4426 164.895 28.6956C164.803 26.8565 164.527 25.5692 163.24 26.2129C162.504 26.4887 162.32 29.0634 162.32 29.0634Z" fill="black" stroke="black" stroke-width="1.5" stroke-miterlimit="10" stroke-linecap="round" stroke-linejoin="round"></path> <path d="M183.561 3.04159C182.642 2.58183 181.906 4.14501 181.447 5.43233C181.079 6.71965 181.263 7.27136 181.998 7.63916C182.734 7.91502 183.653 7.45526 184.113 5.98404C184.573 4.51281 184.481 3.50135 183.561 3.04159Z" fill="black" stroke="black" stroke-width="1.5" stroke-miterlimit="10" stroke-linecap="round" stroke-linejoin="round"></path> <path d="M188.895 1.5701C187.883 1.20229 187.24 2.85742 186.872 4.23669C186.504 5.61596 186.78 6.25962 187.607 6.44353C188.435 6.62743 189.354 6.07572 189.63 4.51255C190.09 2.94937 189.906 1.9379 188.895 1.5701Z" fill="black" stroke="black" stroke-width="1.5" stroke-miterlimit="10" stroke-linecap="round" stroke-linejoin="round"></path> <path d="M192.757 5.43218C191.837 5.15632 191.377 6.62754 191.193 7.82291C191.009 9.01828 191.285 9.56999 192.021 9.7539C192.757 9.9378 193.492 9.38609 193.676 8.00682C193.86 6.62754 193.768 5.70803 192.757 5.43218Z" fill="black" stroke="black" stroke-width="1.5" stroke-miterlimit="10" stroke-linecap="round" stroke-linejoin="round"></path> <path d="M202.044 22.6272C201.86 21.9835 201.308 21.3398 200.665 21.3398C200.021 21.3398 199.745 22.6272 200.021 23.7306C200.205 24.834 200.573 25.3857 201.308 25.3857C202.044 25.3857 202.688 24.5581 202.044 22.6272Z" fill="black" stroke="black" stroke-width="1.5" stroke-miterlimit="10" stroke-linecap="round" stroke-linejoin="round"></path> <path d="M236.146 100.407C236.146 100.407 243.686 86.43 243.686 76.4073C243.686 66.3846 236.973 54.155 237.157 46.0633C237.341 39.5347 241.571 26.2018 243.226 21.4203C243.594 20.3169 244.237 19.2134 245.157 18.3859L261.616 2.29437C262.076 1.83462 262.903 1.92657 263.363 2.47828C264.375 4.04145 265.478 7.25975 261.984 11.0298C258.398 14.7998 254.076 18.9376 251.869 21.6042C251.134 22.4317 250.766 23.5352 250.582 24.6386C250.306 27.3052 249.754 32.6384 249.203 35.6728C249.019 36.8681 249.203 38.0635 249.846 38.983C250.49 39.9025 251.134 41.2818 251.501 42.6611" stroke="black" stroke-width="1.5" stroke-miterlimit="10" stroke-linecap="round" stroke-linejoin="round"></path> <path d="M248.835 48.9142C248.835 48.9142 252.605 40.3627 254.904 31.3514C257.203 22.3402 256.191 20.4092 259.501 20.3172C262.812 20.2253 263.363 24.9148 262.168 32.7307C260.973 40.4546 261.524 47.0751 263.455 52.1325C265.386 57.1898 268.421 65.8332 263.087 78.1547C258.766 87.9935 258.674 100.407 258.674 100.407" stroke="black" stroke-width="1.5" stroke-miterlimit="10" stroke-linecap="round" stroke-linejoin="round"></path> <path d="M257.57 6.15622C257.57 6.15622 258.122 7.81134 260.789 5.42061C263.455 3.02987 262.995 2.11035 262.26 2.11035C261.248 2.11035 257.57 6.15622 257.57 6.15622Z" fill="black" stroke="black" stroke-width="1.5" stroke-miterlimit="10" stroke-linecap="round" stroke-linejoin="round"></path> <path d="M251.134 22.432L261.8 16.0874C262.536 15.6276 263.363 15.4437 264.191 15.5357L280.282 16.915C280.834 17.0069 281.202 17.4667 281.018 18.0184C280.65 19.3057 279.363 21.8803 274.03 21.6045C269.708 21.4206 267.317 21.2367 266.122 21.2367C265.294 21.2367 264.467 21.5125 263.915 22.0642L262.536 23.6274L276.788 28.3169C277.432 28.5008 277.708 29.2365 277.432 29.7882C276.788 30.9835 275.317 32.5467 271.915 31.7191C266.766 30.5238 262.628 29.3284 262.628 29.3284" stroke="black" stroke-width="1.5" stroke-miterlimit="10" stroke-linecap="round" stroke-linejoin="round"></path> <path d="M262.26 32.3623L270.995 36.1323C271.639 36.4082 271.731 37.2357 271.271 37.7874C270.627 38.615 269.248 39.1667 267.133 38.615C263.363 37.6035 261.708 36.776 261.708 36.776" stroke="black" stroke-width="1.5" stroke-miterlimit="10" stroke-linecap="round" stroke-linejoin="round"></path> <path d="M258.674 20.4088C258.674 20.4088 257.203 20.4088 256.559 23.811C256.191 26.1098 256.927 26.6615 257.938 26.6615C259.318 26.6615 260.329 24.8225 260.329 23.5351C260.329 22.3398 260.421 20.3168 258.674 20.4088Z" fill="black" stroke="black" stroke-width="1.5" stroke-miterlimit="10" stroke-linecap="round" stroke-linejoin="round"></path> <path d="M276.236 16.6389C274.857 16.547 275.225 17.3745 276.144 17.6504C277.156 17.8343 281.661 18.5699 280.834 17.2826C280.65 16.9148 276.236 16.6389 276.236 16.6389Z" fill="black" stroke="black" stroke-width="1.5" stroke-miterlimit="10" stroke-linecap="round" stroke-linejoin="round"></path> <path d="M8.69352 213.943C8.69352 213.943 3.54423 202.174 3.26838 195.369C2.99252 188.473 3.45228 183.324 1.88911 177.531C0.417882 171.738 0.417882 161.623 4.64765 153.531C9.06132 145.072 13.475 138.727 15.1301 136.52C15.4979 135.969 16.3255 135.877 16.7852 136.336C18.1645 137.532 20.0035 140.382 16.6933 146.451C12.0957 154.911 11.1762 157.761 11.8199 160.06L21.5667 146.635C22.3023 145.624 22.854 144.336 22.946 143.049C23.4977 138.359 26.3482 126.038 31.3136 126.682C31.3136 126.682 33.7043 126.865 32.2331 132.199C31.2216 136.153 30.1182 141.945 29.8424 144.704C29.7504 145.807 29.4746 146.911 28.9228 147.922L23.4977 158.405" stroke="black" stroke-width="1.5" stroke-miterlimit="10" stroke-linecap="round" stroke-linejoin="round"></path> <path d="M26.1641 153.716L30.5777 147.555C31.0375 147.003 31.3133 146.267 31.4053 145.624C31.957 143.049 33.5202 136.153 35.3592 131.463C37.658 125.486 39.497 125.211 41.1522 125.67C42.8992 126.13 42.6234 129.073 40.9683 137.072C39.7729 142.773 39.0373 146.543 38.7614 148.106C38.6695 148.75 38.3936 149.302 38.1178 149.854C36.8304 152.06 33.4282 158.313 32.2329 162.727" stroke="black" stroke-width="1.5" stroke-miterlimit="10" stroke-linecap="round" stroke-linejoin="round"></path> <path d="M13.8428 138.36C12.6474 140.291 12.6474 140.475 13.383 141.118C14.1186 141.762 15.6818 140.751 16.3255 139.095C17.0611 137.348 17.3369 136.061 15.8657 136.061C15.1301 136.153 13.8428 138.36 13.8428 138.36Z" fill="black" stroke="black" stroke-width="1.5" stroke-miterlimit="10" stroke-linecap="round" stroke-linejoin="round"></path> <path d="M31.7731 127.233C30.7616 126.773 29.9341 128.52 29.4743 129.992C29.0146 131.463 29.1985 132.107 30.026 132.382C30.8536 132.658 31.8651 132.107 32.3248 130.451C32.7846 128.796 32.7846 127.693 31.7731 127.233Z" fill="black" stroke="black" stroke-width="1.5" stroke-miterlimit="10" stroke-linecap="round" stroke-linejoin="round"></path> <path d="M41.3363 125.854C40.3248 125.487 39.5892 127.234 39.2214 128.705C38.8536 130.176 39.1294 130.82 39.957 131.096C40.7845 131.371 41.7041 130.728 42.0719 128.981C42.4397 127.234 42.3477 126.314 41.3363 125.854Z" fill="black" stroke="black" stroke-width="1.5" stroke-miterlimit="10" stroke-linecap="round" stroke-linejoin="round"></path> <path d="M41.4283 134.498C41.4283 134.498 42.8075 129.624 45.3822 130.176C47.9568 130.728 47.0373 134.498 46.6695 138.268C46.3936 142.038 45.4741 148.566 44.6466 151.233C43.5431 154.819 39.5892 161.991 38.21 166.589" stroke="black" stroke-width="1.5" stroke-miterlimit="10" stroke-linecap="round" stroke-linejoin="round"></path> <path d="M46.0257 130.636C45.0142 130.36 44.4625 132.015 44.2786 133.486C44.0027 134.866 44.3705 135.509 45.1062 135.601C45.8418 135.785 46.7613 135.141 46.9452 133.578C47.221 131.923 47.0371 130.912 46.0257 130.636Z" fill="black" stroke="black" stroke-width="1.5" stroke-miterlimit="10" stroke-linecap="round" stroke-linejoin="round"></path> <path d="M41.0602 159.876C41.0602 159.876 45.7497 156.658 47.2209 155.647C48.6922 154.635 52.2783 145.532 55.5885 147.095C58.9907 148.658 54.1173 153.164 52.2783 157.486C50.4392 161.807 44.9221 162.819 42.3475 168.06C39.9568 172.841 33.796 183.324 28.4628 189.393C27.6353 190.312 27.1755 191.6 27.2675 192.887C27.5433 196.841 28.4628 205.668 31.4972 212.932" stroke="black" stroke-width="1.5" stroke-miterlimit="10" stroke-linecap="round" stroke-linejoin="round"></path> <path d="M56.1403 147.739C55.4047 147.187 54.5771 148.474 54.0254 149.486C53.4737 150.497 53.6576 151.049 54.3013 151.417C54.9449 151.785 55.7725 151.509 56.3242 150.313C56.8759 149.118 56.9679 148.291 56.1403 147.739Z" fill="black" stroke="black" stroke-width="1.5" stroke-miterlimit="10" stroke-linecap="round" stroke-linejoin="round"></path> <path d="M90.2199 214.955C91.5991 211.829 92.3347 208.427 92.7025 206.036C92.9784 204.013 92.6106 201.99 91.783 200.243C84.7947 186.083 83.2315 177.899 80.2891 169.807C79.0937 166.497 79.5535 162.727 81.5764 159.784L85.7142 153.624C86.174 152.888 87.3694 152.98 87.6452 153.808C88.105 155.003 88.3808 157.026 86.6337 159.968C82.7718 166.497 84.7947 167.049 87.3694 170.267C87.3694 170.267 89.5762 157.853 90.2199 155.463C90.8635 153.072 94.6335 145.256 95.7369 143.417C96.8404 141.578 97.3921 141.026 98.8633 141.21C101.162 141.486 100.059 145.44 100.059 145.44" stroke="black" stroke-width="1.5" stroke-miterlimit="10" stroke-linecap="round" stroke-linejoin="round"></path> <path d="M101.622 169.715C101.622 169.715 105.851 133.854 106.495 130.084C107.139 126.314 108.15 125.762 109.621 125.854C111.093 125.946 112.84 126.958 112.564 130.728C112.38 134.038 111.46 149.026 111.46 152.704C111.46 156.382 109.254 175.6 112.104 175.876C113.667 176.06 113.299 171.094 112.196 166.865C110.909 161.531 111.185 156.566 111.185 156.566" stroke="black" stroke-width="1.5" stroke-miterlimit="10" stroke-linecap="round" stroke-linejoin="round"></path> <path d="M105.944 134.406C105.944 134.406 104.472 133.854 103.093 136.797C101.714 139.739 97.0243 153.716 96.6565 155.279C96.2887 156.934 95.737 160.52 95.0933 163.646C94.4497 166.773 93.8979 170.359 93.8979 170.359" stroke="black" stroke-width="1.5" stroke-miterlimit="10" stroke-linecap="round" stroke-linejoin="round"></path> <path d="M111.369 154.911C111.461 151.876 113.024 150.037 115.323 149.762C117.621 149.486 117.254 156.29 119.92 163.83C122.587 171.37 122.771 186.45 118.633 198.036C116.426 204.197 116.426 202.45 113.116 214.955" stroke="black" stroke-width="1.5" stroke-miterlimit="10" stroke-linecap="round" stroke-linejoin="round"></path> <path d="M108.794 126.406C107.69 126.222 107.231 127.969 106.955 129.44C106.679 130.912 107.047 131.555 107.874 131.739C108.702 131.923 109.621 131.187 109.805 129.44C109.989 127.785 110.449 126.774 108.794 126.406Z" fill="black" stroke="black" stroke-width="1.5" stroke-miterlimit="10" stroke-linecap="round" stroke-linejoin="round"></path> <path d="M105.392 134.682C104.656 134.13 103.553 135.877 103.093 137.072C102.725 138.268 102.909 138.819 103.553 139.095C104.197 139.279 105.024 138.819 105.392 137.44C105.852 136.061 105.668 134.957 105.392 134.682Z" fill="black" stroke="black" stroke-width="1.5" stroke-miterlimit="10" stroke-linecap="round" stroke-linejoin="round"></path> <path d="M98.4034 141.486C97.4839 140.935 96.3805 142.406 95.8288 143.693C95.2771 144.981 95.369 145.624 96.1046 145.992C96.8403 146.36 97.7598 145.9 98.4034 144.429C98.9551 142.866 99.3229 142.038 98.4034 141.486Z" fill="black" stroke="black" stroke-width="1.5" stroke-miterlimit="10" stroke-linecap="round" stroke-linejoin="round"></path> <path d="M85.1629 154.359C84.5192 155.371 84.4273 156.29 84.979 156.658C85.5307 157.026 87.6456 153.9 86.726 153.348C86.1743 152.98 85.1629 154.359 85.1629 154.359Z" fill="black" stroke="black" stroke-width="1.5" stroke-miterlimit="10" stroke-linecap="round" stroke-linejoin="round"></path> <path d="M115.967 150.038C114.863 149.946 114.219 151.141 114.587 153.164C115.047 155.187 115.783 155.739 117.346 155.463L116.794 151.417L115.967 150.038Z" fill="black" stroke="black" stroke-width="1.5" stroke-miterlimit="10" stroke-linecap="round" stroke-linejoin="round"></path> <path d="M158.54 219.553C158.54 219.553 161.758 203.829 159.735 192.795C157.712 181.761 156.057 168.704 156.149 162.819C156.241 156.842 154.77 144.98 155.321 141.854C155.781 139.463 157.069 130.268 157.528 126.406C157.712 125.303 158.908 124.567 159.919 125.027C161.114 125.487 162.218 126.682 162.126 129.441C161.942 134.774 161.39 140.659 161.39 142.498C161.39 144.337 162.953 154.451 162.953 154.451" stroke="black" stroke-width="1.5" stroke-miterlimit="10" stroke-linecap="round" stroke-linejoin="round"></path> <path d="M159.643 166.037C159.643 166.037 162.218 158.038 162.953 154.911C163.781 151.785 164.7 143.417 165.252 140.659C165.712 138.452 168.287 126.774 169.206 122.452C169.39 121.441 170.493 120.797 171.505 121.165C172.608 121.533 173.712 122.452 173.712 124.475C173.712 128.153 171.873 139.188 171.505 140.935C171.229 142.682 171.045 148.015 171.045 148.015" stroke="black" stroke-width="1.5" stroke-miterlimit="10" stroke-linecap="round" stroke-linejoin="round"></path> <path d="M163.873 167.692C163.873 167.692 168.471 152.245 169.85 149.854C171.229 147.463 184.838 133.946 187.505 133.578C190.171 133.211 191.367 136.705 187.505 140.659C183.643 144.613 177.206 150.406 176.195 152.153C175.183 153.9 174.723 159.601 174.723 159.601" stroke="black" stroke-width="1.5" stroke-miterlimit="10" stroke-linecap="round" stroke-linejoin="round"></path> <path d="M170.585 169.623C170.585 169.623 174.815 159.6 176.93 157.026C178.585 155.003 185.941 148.75 189.068 146.176C190.079 145.348 191.734 145.808 192.01 147.095C192.194 148.107 192.01 149.578 190.539 151.325C187.045 155.647 183.643 158.589 182.171 160.152C180.7 161.715 181.344 166.313 182.263 171.278C183.183 176.244 187.137 192.519 183.735 200.059C180.332 207.691 177.666 210.817 177.758 219.185" stroke="black" stroke-width="1.5" stroke-miterlimit="10" stroke-linecap="round" stroke-linejoin="round"></path> <path d="M158.723 125.21C157.804 125.118 157.528 126.957 157.344 128.521C157.252 130.084 157.528 130.635 158.264 130.635C158.999 130.635 159.643 129.9 159.735 128.153C159.827 126.406 160.103 125.302 158.723 125.21Z" fill="black" stroke="black" stroke-width="1.5" stroke-miterlimit="10" stroke-linecap="round" stroke-linejoin="round"></path> <path d="M170.494 121.257C169.574 121.165 169.206 122.82 169.022 124.199C168.839 125.578 169.114 126.222 169.85 126.314C170.494 126.406 171.321 125.67 171.505 124.107C171.597 122.452 171.873 121.441 170.494 121.257Z" fill="black" stroke="black" stroke-width="1.5" stroke-miterlimit="10" stroke-linecap="round" stroke-linejoin="round"></path> <path d="M188.332 133.762C187.688 133.119 186.217 134.222 185.114 135.326C184.01 136.429 183.826 136.981 184.378 137.532C184.838 137.992 185.941 137.9 187.136 136.705C188.332 135.51 189.343 134.774 188.332 133.762Z" fill="black" stroke="black" stroke-width="1.5" stroke-miterlimit="10" stroke-linecap="round" stroke-linejoin="round"></path> <path d="M190.723 146.084C190.263 145.624 189.068 146.452 188.24 147.279C187.321 148.107 187.229 148.567 187.596 149.026C187.964 149.394 188.792 149.302 189.803 148.291C190.723 147.279 191.458 146.819 190.723 146.084Z" fill="black" stroke="black" stroke-width="1.5" stroke-miterlimit="10" stroke-linecap="round" stroke-linejoin="round"></path> <path d="M215.502 215.897C215.502 215.897 218.628 196.22 219.364 190.243C220.1 184.266 221.479 175.807 237.662 165.876C253.846 155.853 283.822 133.049 285.937 133.233C288.052 133.325 291.362 136.267 281.339 144.083C271.317 151.991 261.478 159.439 261.478 159.439" stroke="black" stroke-width="1.5" stroke-miterlimit="10" stroke-linecap="round" stroke-linejoin="round"></path> <path d="M232.146 169.646C232.146 169.646 247.226 154.75 250.168 150.98C253.11 147.21 255.041 144.543 257.708 145.555C261.018 146.842 256.788 152.911 256.788 152.911" stroke="black" stroke-width="1.5" stroke-miterlimit="10" stroke-linecap="round" stroke-linejoin="round"></path> <path d="M254.306 162.658C254.306 162.658 257.616 160.083 260.283 159.808C262.673 159.532 288.879 156.957 296.879 155.946C298.075 155.762 299.086 156.773 298.994 157.877C298.81 159.716 297.431 162.106 291.73 163.21C281.983 165.141 263.777 166.612 263.409 169.646C263.041 172.681 284.65 179.945 288.971 182.612C293.293 185.278 289.891 188.864 286.305 187.301C282.719 185.738 262.581 178.29 262.581 178.29" stroke="black" stroke-width="1.5" stroke-miterlimit="10" stroke-linecap="round" stroke-linejoin="round"></path> <path d="M279.225 184.542C281.615 185.462 281.339 186.933 280.972 187.668C280.512 188.68 279.684 189.048 276.65 188.496C273.616 187.944 263.869 184.266 260.283 185.002C256.696 185.737 252.191 189.691 248.145 191.071C244.099 192.45 237.938 190.519 236.007 192.726C233.617 195.484 234.996 216.265 234.996 216.265" stroke="black" stroke-width="1.5" stroke-miterlimit="10" stroke-linecap="round" stroke-linejoin="round"></path> <path d="M286.489 133.601C285.937 132.957 284.466 133.877 283.362 134.796C282.259 135.716 282.167 136.359 282.627 136.911C283.087 137.463 284.098 137.371 285.293 136.267C286.489 135.256 287.408 134.704 286.489 133.601Z" fill="black" stroke="black" stroke-width="1.5" stroke-miterlimit="10" stroke-linecap="round" stroke-linejoin="round"></path> <path d="M290.811 185.278C291.179 184.45 289.707 183.623 288.328 182.979C287.041 182.427 286.397 182.519 286.121 183.163C285.845 183.807 286.305 184.726 287.868 185.37C289.34 186.013 290.259 186.565 290.811 185.278Z" fill="black" stroke="black" stroke-width="1.5" stroke-miterlimit="10" stroke-linecap="round" stroke-linejoin="round"></path> <path d="M281.064 186.197C281.248 185.553 280.053 185.002 278.949 184.726C277.846 184.45 277.386 184.542 277.294 185.094C277.11 185.645 277.57 186.289 278.765 186.565C279.961 186.933 280.696 187.3 281.064 186.197Z" fill="black" stroke="black" stroke-width="1.5" stroke-miterlimit="10" stroke-linecap="round" stroke-linejoin="round"></path> </svg> 