<?xml version="1.0" encoding="UTF-8"?> <svg xmlns="http://www.w3.org/2000/svg" viewBox="0 0 92.2 91.9"> <defs> <style>.cls-1{fill:none;}.cls-1,.cls-2{stroke:#000;stroke-linecap:round;stroke-linejoin:round;stroke-width:1.5px;}</style> </defs> <title>Artboard 27</title> <g id="Layer_2" data-name="Layer 2"> <path class="cls-1" d="M3.19,88.78S6.46,68.27,7.24,62,9.46,47,26.32,36.53,74.52,2.31,76.74,2.44s5.62,3.13-4.83,11.36S51.14,29.87,51.14,29.87"></path> <path class="cls-1" d="M20.5,40.51S36.21,25,39.33,21.06s5.12-6.7,7.83-5.62c3.45,1.37-1,7.72-1,7.72"></path> <path class="cls-1" d="M43.65,33.17s3.5-2.68,6.24-3c2.5-.26,29.8-3,38.22-4.05a1.94,1.94,0,0,1,2.21,2.06c-.18,1.87-1.62,4.38-7.62,5.55-10.2,2-29.2,3.54-29.55,6.75S75.29,51.24,79.81,54s.92,6.51-2.79,4.89-24.8-9.39-24.8-9.39"></path> <path class="cls-1" d="M69.68,56c2.51,1,2.21,2.46,1.83,3.27-.48,1-1.32,1.45-4.52.87s-13.37-4.42-17.12-3.61-8.42,4.94-12.68,6.33-10.67-.53-12.65,1.69c-2.53,2.86-1,24.59-1,24.59"></path> <path class="cls-2" d="M77.23,2.94c-.61-.72-2.1.31-3.23,1.29s-1.29,1.63-.82,2.18,1.56.5,2.8-.64S78.17,4,77.23,2.94Z"></path> <path class="cls-2" d="M89.41,27c-.18-.92-2-.76-3.45-.46s-1.92.78-1.78,1.49,1.1,1.21,2.75.83S89.68,28.45,89.41,27Z"></path> <path class="cls-2" d="M81.75,56.84c.39-.86-1.18-1.77-2.55-2.37s-2-.47-2.32.2.21,1.62,1.78,2.25S81.16,58.16,81.75,56.84Z"></path> <path class="cls-2" d="M71.57,57.82c.21-.7-1.08-1.25-2.18-1.58s-1.6-.17-1.77.37.32,1.23,1.58,1.57S71.24,58.89,71.57,57.82Z"></path> </g> </svg> 